HIERARCHY
ROOT Hips
{
	OFFSET 0.000000 0.000000 0.000000
	CHANNELS 6 Xposition Yposition Zposition Zrotation Yrotation Xrotation 
	JOINT LHipJoint
	{
		OFFSET 0.000000 0.000000 0.000000
		CHANNELS 3 Zrotation Yrotation Xrotation
		JOINT LeftUpLeg
		{
			OFFSET 1.363060 -1.794630 0.839290
			CHANNELS 3 Zrotation Yrotation Xrotation
			JOINT LeftLeg
			{
				OFFSET 2.448110 -6.726130 0.000000
				CHANNELS 3 Zrotation Yrotation Xrotation
				JOINT LeftFoot
				{
					OFFSET 2.562200 -7.039590 0.000000
					CHANNELS 3 Zrotation Yrotation Xrotation
					JOINT LeftToeBase
					{
						OFFSET 0.157640 -0.433110 2.322550
						CHANNELS 3 Zrotation Yrotation Xrotation
						End Site
						{
							OFFSET 0.000000 0.000000 0.000000
						}
					}
				}
			}
		}
	}
	JOINT RHipJoint
	{
		OFFSET 0.000000 0.000000 0.000000
		CHANNELS 3 Zrotation Yrotation Xrotation
		JOINT RightUpLeg
		{
			OFFSET -1.305520 -1.794630 0.839290
			CHANNELS 3 Zrotation Yrotation Xrotation
			JOINT RightLeg
			{
				OFFSET -2.542530 -6.985550 0.000000
				CHANNELS 3 Zrotation Yrotation Xrotation
				JOINT RightFoot
				{
					OFFSET -2.568260 -7.056230 0.000000
					CHANNELS 3 Zrotation Yrotation Xrotation
					JOINT RightToeBase
					{
						OFFSET -0.164730 -0.452590 2.363150
						CHANNELS 3 Zrotation Yrotation Xrotation
						End Site
						{
							OFFSET 0.000000 0.000000 0.000000
						}
					}
				}
			}
		}
	}
}
MOTION
Frames: 19
Frame Time: 0.008333
4.393892 17.427257 0.865275 -178.526846 -86.940204 -169.777947 -11.323162 1.923524 1.279620 -6.261513 15.485769 -14.156088 -2.438658 -1.539973 -4.620715 0.649074 8.059853 5.306402 2.198400 -0.000000 -38.628300 9.397338 -2.484408 3.010292 5.095056 -2.792774 -13.781514 2.409102 0.987476 1.279714 -0.601965 -4.231038 3.214999 -1.457900 -0.000001 -61.710600
4.385730 17.427571 0.850370 -178.464197 -87.447874 -169.767282 -11.311877 1.915492 1.352835 -6.196606 15.187074 -14.236197 -2.436002 -1.547027 -4.689984 0.642950 7.939117 5.427824 2.179800 -0.000000 -38.826900 9.395108 -2.489516 2.992886 5.187181 -2.902613 -13.829014 2.403269 0.985176 1.440088 -0.645924 -4.424350 2.975520 -1.478600 0.000000 -61.033801
4.377433 17.428023 0.835082 -178.459619 -87.925981 -169.690477 -11.300499 1.906701 1.422512 -6.135787 14.902146 -14.290286 -2.434092 -1.558676 -4.818140 0.648396 7.841515 5.578969 2.160600 -0.000000 -39.018900 9.392699 -2.494600 2.982742 5.273519 -2.970793 -13.914135 2.395481 0.977328 1.651683 -0.690667 -4.611047 2.721660 -1.494900 -0.000000 -60.287700
4.369141 17.428610 0.819314 -178.529235 -88.366154 -169.528422 -11.289130 1.896759 1.489081 -6.078522 14.631439 -14.317886 -2.432818 -1.575787 -5.014035 0.667050 7.773178 5.764166 2.141999 0.000000 -39.199400 9.389678 -2.499971 2.982574 5.354569 -2.987276 -14.045719 2.385397 0.963483 1.918874 -0.736852 -4.794898 2.455652 -1.507899 0.000000 -59.484500
4.361016 17.429334 0.803064 -178.701392 -88.758259 -169.257013 -11.278542 1.885366 1.547780 -6.023033 14.390674 -14.308784 -2.432791 -1.597997 -5.282548 0.699315 7.727935 5.988680 2.121800 0.000000 -39.368800 9.386344 -2.505399 2.990088 5.429483 -2.953680 -14.218956 2.373330 0.942621 2.243071 -0.782951 -4.967829 2.182460 -1.516200 -0.000000 -58.647400
4.353132 17.430158 0.786274 -178.980526 -89.082711 -168.874957 -11.260515 1.862080 1.590520 -5.973834 14.171936 -14.504584 -2.428070 -1.597408 -5.109381 0.712799 7.709903 5.953633 2.102200 0.000000 -39.521400 9.381874 -2.510519 3.010079 5.498107 -2.861891 -14.436997 2.359694 0.915997 2.623014 -0.827700 -5.126561 1.908122 -1.520200 0.000000 -57.798200
4.345479 17.431001 0.768990 -179.315214 -89.325698 -168.433371 -11.239959 1.831899 1.619045 -5.926745 13.988021 -14.801302 -2.420195 -1.585106 -4.708092 0.722484 7.723714 5.782439 2.083301 0.000000 -39.654900 9.375874 -2.515366 3.041112 5.560093 -2.712192 -14.695930 2.345293 0.883624 3.051192 -0.868945 -5.261258 1.640794 -1.518900 0.000000 -56.968200
4.337977 17.431781 0.751309 -179.565455 -89.467524 -168.073174 -11.221728 1.799769 1.635728 -5.878773 13.848808 -15.121533 -2.409936 -1.568798 -4.236893 0.739610 7.777259 5.564558 2.066100 0.000000 -39.766400 9.366758 -2.519310 3.082387 5.614641 -2.504201 -14.990238 2.331274 0.846633 3.516300 -0.903786 -5.359929 1.389618 -1.511400 0.000000 -56.189600
4.330342 17.432430 0.733327 -179.564341 -89.483751 -167.960594 -11.208689 1.768389 1.642036 -5.829695 13.758919 -15.458123 -2.396399 -1.548215 -3.706770 0.765871 7.881469 5.303391 2.052799 0.000000 -39.851500 9.352267 -2.521549 3.134927 5.659782 -2.236058 -15.314432 2.318903 0.807335 4.003117 -0.928978 -5.410146 1.164103 -1.496799 -0.000000 -55.488800
4.322674 17.432826 0.715302 -179.208218 -89.351415 -168.208737 -11.203836 1.740001 1.635429 -5.778194 13.737944 -15.797423 -2.379760 -1.522494 -3.128351 0.801104 8.033225 5.002733 2.042100 0.000000 -39.908400 9.330631 -2.521253 3.196782 5.695262 -1.913042 -15.651811 2.309908 0.767764 4.492808 -0.940249 -5.394472 0.975030 -1.473700 0.000000 -54.900699
4.314612 17.432905 0.697458 -178.592780 -89.058112 -168.723613 -11.206888 1.715223 1.615387 -5.722552 13.794733 -16.126649 -2.360231 -1.492773 -2.517382 0.845416 8.236423 4.669204 2.034900 0.000000 -39.933300 9.302714 -2.520075 3.269437 5.721845 -1.537246 -15.990834 2.305733 0.729559 4.963419 -0.934707 -5.300653 0.831131 -1.441101 0.000000 -54.446700
4.305712 17.432627 0.679924 -177.957278 -88.601972 -169.263248 -11.214678 1.693098 1.584067 -5.663513 13.925575 -16.437115 -2.337975 -1.462170 -1.894182 0.899698 8.504431 4.310847 2.034700 0.000000 -39.921600 9.271326 -2.521467 3.358473 5.738963 -1.105181 -16.329128 2.307153 0.693879 5.393446 -0.911219 -5.122810 0.736675 -1.398700 0.000000 -54.123500
4.296024 17.431925 0.663082 -177.350195 -87.972945 -169.789556 -11.228038 1.674468 1.536622 -5.598738 14.156296 -16.710958 -2.314546 -1.430710 -1.273185 0.961777 8.822466 3.933445 2.037800 -0.000000 -39.871200 9.236774 -2.525919 3.461462 5.749536 -0.625416 -16.645263 2.315962 0.662090 5.762898 -0.866830 -4.847807 0.698941 -1.344600 -0.000000 -53.949300
4.285082 17.430787 0.647114 -176.845743 -87.167377 -170.225007 -11.245657 1.660208 1.475940 -5.530741 14.484395 -16.941159 -2.290359 -1.400618 -0.675412 1.032379 9.199930 3.544835 2.046400 0.000000 -39.778500 9.199993 -2.534856 3.582836 5.752228 -0.093741 -16.937774 2.332736 0.635879 6.055926 -0.801255 -4.473626 0.719651 -1.278400 0.000000 -53.904300
4.272705 17.429261 0.632273 -176.426105 -86.179658 -170.588257 -11.267762 1.652193 1.402159 -5.460683 14.918727 -17.119260 -2.266573 -1.372491 -0.116489 1.110717 9.632086 3.150446 2.059300 0.000000 -39.640100 9.160884 -2.547898 3.723281 5.747715 0.489274 -17.199145 2.358292 0.616813 6.261622 -0.714017 -3.997333 0.800498 -1.198900 0.000001 -53.975200
4.258951 17.427352 0.618817 -176.056780 -85.007920 -170.918397 -11.294713 1.652005 1.314419 -5.387097 15.467832 -17.235738 -2.244135 -1.346247 0.390358 1.195760 10.112087 2.754774 2.074700 0.000000 -39.454700 9.119310 -2.563540 3.880799 5.738469 1.119463 -17.420873 2.393392 0.605681 6.375377 -0.605068 -3.417243 0.943384 -1.104800 0.000001 -54.148400
4.243957 17.425123 0.606980 -175.723019 -83.655890 -171.231003 -11.325983 1.660754 1.213798 -5.309276 16.130092 -17.286714 -2.223686 -1.322093 0.834776 1.286973 10.637122 2.361622 2.091900 0.000000 -39.221800 9.075548 -2.580257 4.054640 5.725967 1.795627 -17.601734 2.438182 0.602774 6.398296 -0.475753 -2.736936 1.147681 -0.994901 0.000000 -54.401000
4.227698 17.422627 0.596828 -175.420801 -82.132613 -171.526404 -11.360511 1.679456 1.102880 -5.228981 16.899666 -17.276542 -2.206156 -1.300341 1.212578 1.383839 11.204086 1.972834 2.110000 0.000000 -38.935400 9.030139 -2.596904 4.245737 5.710534 2.518236 -17.748218 2.492252 0.607928 6.337502 -0.328478 -1.964198 1.411373 -0.868299 0.000000 -54.710100
4.210638 17.419902 0.588658 -175.127045 -80.451020 -171.831541 -11.398253 1.707879 0.981050 -5.140272 17.770874 -17.200333 -2.191501 -1.280117 1.521913 1.485257 11.805996 1.591076 2.127700 -0.000000 -38.603800 8.983201 -2.611207 4.449126 5.696702 3.280087 -17.857000 2.555426 0.619773 6.204847 -0.165643 -1.105902 1.733213 -0.723700 -0.000000 -55.062000
